<svg id="kity_svg_6" xmlns="http://www.w3.org/2000/svg" xmlns:xlink="http://www.w3.org/1999/xlink" version="1.1" width="1155" height="862" style="background: rgb(251, 251, 251); visibility: visible;" viewBox="0 0 1155 862"><defs id="kity_defs_7"><linearGradient id="kity_linearGradient_17" x1="0" y1="0" x2="0" y2="1"><stop id="kity_stop_18" offset="0" stop-color="rgb(255, 255, 255)"></stop><stop id="kity_stop_19" offset="1" stop-color="rgb(204, 204, 204)"></stop></linearGradient><marker id="kity_marker_2" orient="auto" refX="6" refY="0" viewBox="-7 -7 14 14" markerWidth="7" markerHeight="7" markerUnits="userSpaceOnUse"><path id="kity_path_3" fill="rgb(115, 161, 191)" stroke="none" d="M6,0A6,6,0,1,1,-6,0A6,6,0,1,1,6,0"></path></marker></defs><g id="kity_g_8"><g id="minder1" text-rendering="optimize-speed"><g id="minder_connect_group1"><path id="kity_path_31" fill="none" stroke="rgb(115, 161, 191)" stroke-width="1" d="M117,444.5A214.5,361,0,0,1,331.5,83.5"></path><path id="kity_path_33" fill="none" stroke="rgb(115, 161, 191)" stroke-width="1" d="M598.5,83.5C618.5,83.5,618.5,31.5,638.5,31.5"></path><path id="kity_path_35" fill="none" stroke="rgb(115, 161, 191)" stroke-width="1" d="M684.5,31.5C704.5,31.5,704.5,31.5,724.5,31.5"></path><path id="kity_path_37" fill="none" stroke="rgb(115, 161, 191)" stroke-width="1" d="M598.5,83.5C618.5,83.5,618.5,83.5,638.5,83.5"></path><path id="kity_path_39" fill="none" stroke="rgb(115, 161, 191)" stroke-width="1" d="M683.5,83.5C703.5,83.5,703.5,83.5,723.5,83.5"></path><path id="kity_path_41" fill="none" stroke="rgb(115, 161, 191)" stroke-width="1" d="M598.5,83.5C618.5,83.5,618.5,135.5,638.5,135.5"></path><path id="kity_path_43" fill="none" stroke="rgb(115, 161, 191)" stroke-width="1" d="M683.5,135.5C703.5,135.5,703.5,135.5,723.5,135.5"></path><path id="kity_path_45" fill="none" stroke="rgb(115, 161, 191)" stroke-width="1" d="M117,444.5A214.5,13,0,0,1,331.5,431.5"></path><path id="kity_path_47" fill="none" stroke="rgb(115, 161, 191)" stroke-width="1" d="M556.5,431.5C576.5,431.5,576.5,197.5,596.5,197.5"></path><path id="kity_path_49" fill="none" stroke="rgb(115, 161, 191)" stroke-width="1" d="M556.5,431.5C576.5,431.5,576.5,249.5,596.5,249.5"></path><path id="kity_path_51" fill="none" stroke="rgb(115, 161, 191)" stroke-width="1" d="M556.5,431.5C576.5,431.5,576.5,301.5,596.5,301.5"></path><path id="kity_path_53" fill="none" stroke="rgb(115, 161, 191)" stroke-width="1" d="M556.5,431.5C576.5,431.5,576.5,353.5,596.5,353.5"></path><path id="kity_path_55" fill="none" stroke="rgb(115, 161, 191)" stroke-width="1" d="M556.5,431.5C576.5,431.5,576.5,483.5,596.5,483.5"></path><path id="kity_path_57" fill="none" stroke="rgb(115, 161, 191)" stroke-width="1" d="M833.5,483.5C853.5,483.5,853.5,405.5,873.5,405.5"></path><path id="kity_path_59" fill="none" stroke="rgb(115, 161, 191)" stroke-width="1" d="M833.5,483.5C853.5,483.5,853.5,457.5,873.5,457.5"></path><path id="kity_path_61" fill="none" stroke="rgb(115, 161, 191)" stroke-width="1" d="M833.5,483.5C853.5,483.5,853.5,509.5,873.5,509.5"></path><path id="kity_path_63" fill="none" stroke="rgb(115, 161, 191)" stroke-width="1" d="M833.5,483.5C853.5,483.5,853.5,561.5,873.5,561.5"></path><path id="kity_path_65" fill="none" stroke="rgb(115, 161, 191)" stroke-width="1" d="M556.5,431.5C576.5,431.5,576.5,665.5,596.5,665.5"></path><path id="kity_path_67" fill="none" stroke="rgb(115, 161, 191)" stroke-width="1" d="M725.5,665.5C745.5,665.5,745.5,613.5,765.5,613.5"></path><path id="kity_path_69" fill="none" stroke="rgb(115, 161, 191)" stroke-width="1" d="M725.5,665.5C745.5,665.5,745.5,665.5,765.5,665.5"></path><path id="kity_path_71" fill="none" stroke="rgb(115, 161, 191)" stroke-width="1" d="M725.5,665.5C745.5,665.5,745.5,717.5,765.5,717.5"></path><path id="kity_path_73" fill="none" stroke="rgb(115, 161, 191)" stroke-width="1" d="M117,444.5A214.5,361,0,0,0,331.5,805.5"></path><path id="kity_path_75" fill="none" stroke="rgb(115, 161, 191)" stroke-width="1" d="M472.5,805.5C492.5,805.5,492.5,779.5,512.5,779.5"></path><path id="kity_path_77" fill="none" stroke="rgb(115, 161, 191)" stroke-width="1" d="M472.5,805.5C492.5,805.5,492.5,831.5,512.5,831.5"></path></g><g id="minder_node1"><path id="node_outline1" fill="rgb(115, 161, 191)" stroke="rgb(57, 80, 96)" d="M25.5,424.5h183a5,5,0,0,1,5,5v30a5,5,0,0,1,-5,5h-183a5,5,0,0,1,-5,-5v-30a5,5,0,0,1,5,-5z" stroke-width="3"></path><g id="node_text1" fill="white"><text id="kity_text_22" text-rendering="inherit" font-size="16" dy=".8em" y="434.09999990463257" x="44.5">你的生命有什么可能</text></g></g><g id="kity_g_12"><path id="kity_path_13" fill="none" stroke="none" d="M44.5,444.5h0v0h0z"></path></g><g id="kity_g_14"><path id="kity_path_15" fill="none" stroke="none" d="M44.5,444.5h0v0h0z"></path><path id="kity_path_16" fill="none" stroke="none"></path></g><g id="minder_node2"><g id="node_expander7" style="cursor: pointer;"><path id="kity_path_169" fill="white" stroke="gray" d="M332.5,83.5A6,6,0,1,1,320.5,83.5A6,6,0,1,1,332.5,83.5"></path><path id="kity_path_170" fill="none" stroke="gray" d="M322,83.5L331,83.5"></path></g><path id="node_outline8" fill="rgb(238, 243, 246)" stroke="rgb(115, 161, 191)" d="M336.5,70.5h259a3,3,0,0,1,3,3v20a3,3,0,0,1,-3,3h-259a3,3,0,0,1,-3,-3v-20a3,3,0,0,1,3,-3z" stroke-width="1"></path><g id="node_text8" fill="black"><text id="kity_text_91" text-rendering="inherit" font-size="14" dy=".8em" y="74.40000009536743" x="353.5">人生金三角（热爱的领域努力的玩）</text></g></g><g id="minder_node3"><g id="node_expander2" style="cursor: pointer;"><path id="kity_path_154" fill="white" stroke="gray" d="M638.5,31.5A6,6,0,1,1,626.5,31.5A6,6,0,1,1,638.5,31.5"></path><path id="kity_path_155" fill="none" stroke="gray" d="M628,31.5L637,31.5"></path></g><path id="node_outline3" fill="none" stroke="none" d="M643.5,20.5h36a5,5,0,0,1,5,5v12a5,5,0,0,1,-5,5h-36a5,5,0,0,1,-5,-5v-12a5,5,0,0,1,5,-5z"></path><g id="node_text3" fill="black"><text id="kity_text_81" text-rendering="inherit" font-size="12" dy=".8em" y="23.700000047683716" x="648.5">玩耍</text></g></g><g id="minder_node4"><g id="node_expander1" display="none" style="cursor: pointer;"><path id="kity_path_151" fill="white" stroke="gray" d="M740.5,31.5A6,6,0,1,1,728.5,31.5A6,6,0,1,1,740.5,31.5"></path><path id="kity_path_152" fill="none" stroke="gray"></path></g><path id="node_outline2" fill="none" stroke="none" d="M729.5,20.5h35a5,5,0,0,1,5,5v12a5,5,0,0,1,-5,5h-35a5,5,0,0,1,-5,-5v-12a5,5,0,0,1,5,-5z"></path><g id="node_text2" fill="black"><text id="kity_text_79" text-rendering="inherit" font-size="12" dy=".8em" y="23.700000047683716" x="734.5">兴趣</text></g></g><g id="minder_node5"><g id="node_expander4" style="cursor: pointer;"><path id="kity_path_160" fill="white" stroke="gray" d="M638.5,83.5A6,6,0,1,1,626.5,83.5A6,6,0,1,1,638.5,83.5"></path><path id="kity_path_161" fill="none" stroke="gray" d="M628,83.5L637,83.5"></path></g><path id="node_outline5" fill="none" stroke="none" d="M643.5,72.5h35a5,5,0,0,1,5,5v12a5,5,0,0,1,-5,5h-35a5,5,0,0,1,-5,-5v-12a5,5,0,0,1,5,-5z"></path><g id="node_text5" fill="black"><text id="kity_text_85" text-rendering="inherit" font-size="12" dy=".8em" y="75.70000004768372" x="648.5">努力</text></g></g><g id="minder_node6"><g id="node_expander3" display="none" style="cursor: pointer;"><path id="kity_path_157" fill="white" stroke="gray" d="M739.5,83.5A6,6,0,1,1,727.5,83.5A6,6,0,1,1,739.5,83.5"></path><path id="kity_path_158" fill="none" stroke="gray"></path></g><path id="node_outline4" fill="none" stroke="none" d="M728.5,72.5h35a5,5,0,0,1,5,5v12a5,5,0,0,1,-5,5h-35a5,5,0,0,1,-5,-5v-12a5,5,0,0,1,5,-5z"></path><g id="node_text4" fill="black"><text id="kity_text_83" text-rendering="inherit" font-size="12" dy=".8em" y="75.70000004768372" x="733.5">能力</text></g></g><g id="minder_node7"><g id="node_expander6" style="cursor: pointer;"><path id="kity_path_166" fill="white" stroke="gray" d="M638.5,135.5A6,6,0,1,1,626.5,135.5A6,6,0,1,1,638.5,135.5"></path><path id="kity_path_167" fill="none" stroke="gray" d="M628,135.5L637,135.5"></path></g><path id="node_outline7" fill="none" stroke="none" d="M643.5,124.5h35a5,5,0,0,1,5,5v12a5,5,0,0,1,-5,5h-35a5,5,0,0,1,-5,-5v-12a5,5,0,0,1,5,-5z"></path><g id="node_text7" fill="black"><text id="kity_text_89" text-rendering="inherit" font-size="12" dy=".8em" y="127.70000004768372" x="648.5">热爱</text></g></g><g id="minder_node8"><g id="node_expander5" display="none" style="cursor: pointer;"><path id="kity_path_163" fill="white" stroke="gray" d="M739.5,135.5A6,6,0,1,1,727.5,135.5A6,6,0,1,1,739.5,135.5"></path><path id="kity_path_164" fill="none" stroke="gray"></path></g><path id="node_outline6" fill="none" stroke="none" d="M728.5,124.5h48a5,5,0,0,1,5,5v12a5,5,0,0,1,-5,5h-48a5,5,0,0,1,-5,-5v-12a5,5,0,0,1,5,-5z"></path><g id="node_text6" fill="black"><text id="kity_text_87" text-rendering="inherit" font-size="12" dy=".8em" y="127.70000004768372" x="733.5">价值观 </text></g></g><g id="minder_node9"><g id="node_expander21" style="cursor: pointer;"><path id="kity_path_211" fill="white" stroke="gray" d="M332.5,431.5A6,6,0,1,1,320.5,431.5A6,6,0,1,1,332.5,431.5"></path><path id="kity_path_212" fill="none" stroke="gray" d="M322,431.5L331,431.5"></path></g><path id="node_outline22" fill="rgb(238, 243, 246)" stroke="rgb(115, 161, 191)" d="M336.5,418.5h217a3,3,0,0,1,3,3v20a3,3,0,0,1,-3,3h-217a3,3,0,0,1,-3,-3v-20a3,3,0,0,1,3,-3z" stroke-width="1"></path><g id="node_text22" fill="black"><text id="kity_text_119" text-rendering="inherit" font-size="14" dy=".8em" y="422.40000009536743" x="353.5">活得有趣（兴趣发现与养成）</text></g></g><g id="minder_node10"><g id="node_expander8" display="none" style="cursor: pointer;"><path id="kity_path_172" fill="white" stroke="gray" d="M612.5,197.5A6,6,0,1,1,600.5,197.5A6,6,0,1,1,612.5,197.5"></path><path id="kity_path_173" fill="none" stroke="gray"></path></g><path id="node_outline9" fill="none" stroke="none" d="M601.5,186.5h275a5,5,0,0,1,5,5v12a5,5,0,0,1,-5,5h-275a5,5,0,0,1,-5,-5v-12a5,5,0,0,1,5,-5z"></path><g id="node_text9" fill="black"><text id="kity_text_93" text-rendering="inherit" font-size="12" dy=".8em" y="189.70000004768372" x="606.5">兴趣是门自我管理技术，所以任何人都能活得有趣</text></g></g><g id="minder_node11"><g id="node_expander9" display="none" style="cursor: pointer;"><path id="kity_path_175" fill="white" stroke="gray" d="M612.5,249.5A6,6,0,1,1,600.5,249.5A6,6,0,1,1,612.5,249.5"></path><path id="kity_path_176" fill="none" stroke="gray"></path></g><path id="node_outline10" fill="none" stroke="none" d="M601.5,238.5h275a5,5,0,0,1,5,5v12a5,5,0,0,1,-5,5h-275a5,5,0,0,1,-5,-5v-12a5,5,0,0,1,5,-5z"></path><g id="node_text10" fill="black"><text id="kity_text_95" text-rendering="inherit" font-size="12" dy=".8em" y="241.70000004768372" x="606.5">有趣是一种不确定性很高的情绪，相反就是愉悦。</text></g></g><g id="minder_node12"><g id="node_expander10" display="none" style="cursor: pointer;"><path id="kity_path_178" fill="white" stroke="gray" d="M612.5,301.5A6,6,0,1,1,600.5,301.5A6,6,0,1,1,612.5,301.5"></path><path id="kity_path_179" fill="none" stroke="gray"></path></g><path id="node_outline11" fill="none" stroke="none" d="M601.5,290.5h117a5,5,0,0,1,5,5v12a5,5,0,0,1,-5,5h-117a5,5,0,0,1,-5,-5v-12a5,5,0,0,1,5,-5z"></path><g id="node_text11" fill="black"><text id="kity_text_97" text-rendering="inherit" font-size="12" dy=".8em" y="293.7000000476837" x="606.5">好生活＝有趣+愉悦</text></g></g><g id="minder_node13"><g id="node_expander11" display="none" style="cursor: pointer;"><path id="kity_path_181" fill="white" stroke="gray" d="M612.5,353.5A6,6,0,1,1,600.5,353.5A6,6,0,1,1,612.5,353.5"></path><path id="kity_path_182" fill="none" stroke="gray"></path></g><path id="node_outline12" fill="none" stroke="none" d="M601.5,342.5h455a5,5,0,0,1,5,5v12a5,5,0,0,1,-5,5h-455a5,5,0,0,1,-5,-5v-12a5,5,0,0,1,5,-5z"></path><g id="node_text12" fill="black"><text id="kity_text_99" text-rendering="inherit" font-size="12" dy=".8em" y="345.7000000476837" x="606.5">利用好兴趣，每个行业的高手都懂得让无聊的工作变得有趣。让重要的事变得有趣。</text></g></g><g id="minder_node14"><g id="node_expander16" style="cursor: pointer;"><path id="kity_path_196" fill="white" stroke="gray" d="M596.5,483.5A6,6,0,1,1,584.5,483.5A6,6,0,1,1,596.5,483.5"></path><path id="kity_path_197" fill="none" stroke="gray" d="M586,483.5L595,483.5"></path></g><path id="node_outline17" fill="none" stroke="none" d="M601.5,472.5h227a5,5,0,0,1,5,5v12a5,5,0,0,1,-5,5h-227a5,5,0,0,1,-5,-5v-12a5,5,0,0,1,5,-5z"></path><g id="node_text17" fill="black"><text id="kity_text_109" text-rendering="inherit" font-size="12" dy=".8em" y="475.7000000476837" x="606.5">养大一个兴趣（一），即把兴趣为成能力</text></g></g><g id="minder_node15"><g id="node_expander12" display="none" style="cursor: pointer;"><path id="kity_path_184" fill="white" stroke="gray" d="M889.5,405.5A6,6,0,1,1,877.5,405.5A6,6,0,1,1,889.5,405.5"></path><path id="kity_path_185" fill="none" stroke="gray"></path></g><path id="node_outline13" fill="none" stroke="none" d="M878.5,394.5h120a5,5,0,0,1,5,5v12a5,5,0,0,1,-5,5h-120a5,5,0,0,1,-5,-5v-12a5,5,0,0,1,5,-5z"></path><g id="node_text13" fill="black"><text id="kity_text_101" text-rendering="inherit" font-size="12" dy=".8em" y="397.7000000476837" x="883.5">直觉兴趣：感官兴趣</text></g></g><g id="minder_node16"><g id="node_expander13" display="none" style="cursor: pointer;"><path id="kity_path_187" fill="white" stroke="gray" d="M889.5,457.5A6,6,0,1,1,877.5,457.5A6,6,0,1,1,889.5,457.5"></path><path id="kity_path_188" fill="none" stroke="gray"></path></g><path id="node_outline14" fill="none" stroke="none" d="M878.5,446.5h95a5,5,0,0,1,5,5v12a5,5,0,0,1,-5,5h-95a5,5,0,0,1,-5,-5v-12a5,5,0,0,1,5,-5z"></path><g id="node_text14" fill="black"><text id="kity_text_103" text-rendering="inherit" font-size="12" dy=".8em" y="449.7000000476837" x="883.5">自觉兴趣：乐趣</text></g></g><g id="minder_node17"><g id="node_expander14" display="none" style="cursor: pointer;"><path id="kity_path_190" fill="white" stroke="gray" d="M889.5,509.5A6,6,0,1,1,877.5,509.5A6,6,0,1,1,889.5,509.5"></path><path id="kity_path_191" fill="none" stroke="gray"></path></g><path id="node_outline15" fill="none" stroke="none" d="M878.5,498.5h96a5,5,0,0,1,5,5v12a5,5,0,0,1,-5,5h-96a5,5,0,0,1,-5,-5v-12a5,5,0,0,1,5,-5z"></path><g id="node_text15" fill="black"><text id="kity_text_105" text-rendering="inherit" font-size="12" dy=".8em" y="501.7000000476837" x="883.5">潜在兴趣：志趣</text></g></g><g id="minder_node18"><g id="node_expander15" display="none" style="cursor: pointer;"><path id="kity_path_193" fill="white" stroke="gray" d="M889.5,561.5A6,6,0,1,1,877.5,561.5A6,6,0,1,1,889.5,561.5"></path><path id="kity_path_194" fill="none" stroke="gray"></path></g><path id="node_outline16" fill="none" stroke="none" d="M878.5,550.5h252a5,5,0,0,1,5,5v12a5,5,0,0,1,-5,5h-252a5,5,0,0,1,-5,-5v-12a5,5,0,0,1,5,-5z"></path><g id="node_text16" fill="black"><text id="kity_text_107" text-rendering="inherit" font-size="12" dy=".8em" y="553.7000000476837" x="883.5">选择符合你志向和价值观的乐趣，发展为志趣</text></g></g><g id="minder_node19"><g id="node_expander20" style="cursor: pointer;"><path id="kity_path_208" fill="white" stroke="gray" d="M596.5,665.5A6,6,0,1,1,584.5,665.5A6,6,0,1,1,596.5,665.5"></path><path id="kity_path_209" fill="none" stroke="gray" d="M586,665.5L595,665.5"></path></g><path id="node_outline21" fill="none" stroke="none" d="M601.5,654.5h119a5,5,0,0,1,5,5v12a5,5,0,0,1,-5,5h-119a5,5,0,0,1,-5,-5v-12a5,5,0,0,1,5,-5z"></path><g id="node_text21" fill="black"><text id="kity_text_117" text-rendering="inherit" font-size="12" dy=".8em" y="657.7000000476837" x="606.5">养大一个兴趣（二）</text></g></g><g id="minder_node20"><g id="node_expander17" display="none" style="cursor: pointer;"><path id="kity_path_199" fill="white" stroke="gray" d="M781.5,613.5A6,6,0,1,1,769.5,613.5A6,6,0,1,1,781.5,613.5"></path><path id="kity_path_200" fill="none" stroke="gray"></path></g><path id="node_outline18" fill="none" stroke="none" d="M770.5,602.5h155a5,5,0,0,1,5,5v12a5,5,0,0,1,-5,5h-155a5,5,0,0,1,-5,-5v-12a5,5,0,0,1,5,-5z"></path><g id="node_text18" fill="black"><text id="kity_text_111" text-rendering="inherit" font-size="12" dy=".8em" y="605.7000000476837" x="775.5">感官体验，获得第一步动力</text></g></g><g id="minder_node21"><g id="node_expander18" display="none" style="cursor: pointer;"><path id="kity_path_202" fill="white" stroke="gray" d="M781.5,665.5A6,6,0,1,1,769.5,665.5A6,6,0,1,1,781.5,665.5"></path><path id="kity_path_203" fill="none" stroke="gray"></path></g><path id="node_outline19" fill="none" stroke="none" d="M770.5,654.5h155a5,5,0,0,1,5,5v12a5,5,0,0,1,-5,5h-155a5,5,0,0,1,-5,-5v-12a5,5,0,0,1,5,-5z"></path><g id="node_text19" fill="black"><text id="kity_text_113" text-rendering="inherit" font-size="12" dy=".8em" y="657.7000000476837" x="775.5">掌握更多知识，进化为乐趣</text></g></g><g id="minder_node22"><g id="node_expander19" display="none" style="cursor: pointer;"><path id="kity_path_205" fill="white" stroke="gray" d="M781.5,717.5A6,6,0,1,1,769.5,717.5A6,6,0,1,1,781.5,717.5"></path><path id="kity_path_206" fill="none" stroke="gray"></path></g><path id="node_outline20" fill="none" stroke="none" d="M770.5,706.5h252a5,5,0,0,1,5,5v12a5,5,0,0,1,-5,5h-252a5,5,0,0,1,-5,-5v-12a5,5,0,0,1,5,-5z"></path><g id="node_text20" fill="black"><text id="kity_text_115" text-rendering="inherit" font-size="12" dy=".8em" y="709.7000000476837" x="775.5">与价值绑定，目标先不用太高，容易受挫放弃</text></g></g><g id="minder_node23"><g id="node_expander24" style="cursor: pointer;"><path id="kity_path_220" fill="white" stroke="gray" d="M332.5,805.5A6,6,0,1,1,320.5,805.5A6,6,0,1,1,332.5,805.5"></path><path id="kity_path_221" fill="none" stroke="gray" d="M322,805.5L331,805.5"></path></g><path id="node_outline25" fill="rgb(238, 243, 246)" stroke="rgb(115, 161, 191)" d="M336.5,792.5h133a3,3,0,0,1,3,3v20a3,3,0,0,1,-3,3h-133a3,3,0,0,1,-3,-3v-20a3,3,0,0,1,3,-3z" stroke-width="1"></path><g id="node_text25" fill="black"><text id="kity_text_125" text-rendering="inherit" font-size="14" dy=".8em" y="796.4000000953674" x="353.5">为什么活得无趣</text></g></g><g id="minder_node24"><g id="node_expander22" display="none" style="cursor: pointer;"><path id="kity_path_214" fill="white" stroke="gray" d="M528.5,779.5A6,6,0,1,1,516.5,779.5A6,6,0,1,1,528.5,779.5"></path><path id="kity_path_215" fill="none" stroke="gray"></path></g><path id="node_outline23" fill="none" stroke="none" d="M517.5,768.5h237a5,5,0,0,1,5,5v12a5,5,0,0,1,-5,5h-237a5,5,0,0,1,-5,-5v-12a5,5,0,0,1,5,-5z"></path><g id="node_text23" fill="black"><text id="kity_text_121" text-rendering="inherit" font-size="12" dy=".8em" y="771.7000000476837" x="522.5">把"有用"、"没用"做为评判做一件事的标准</text></g></g><g id="minder_node25"><g id="node_expander23" display="none" style="cursor: pointer;"><path id="kity_path_217" fill="white" stroke="gray" d="M528.5,831.5A6,6,0,1,1,516.5,831.5A6,6,0,1,1,528.5,831.5"></path><path id="kity_path_218" fill="none" stroke="gray"></path></g><path id="node_outline24" fill="none" stroke="none" d="M517.5,820.5h479a5,5,0,0,1,5,5v12a5,5,0,0,1,-5,5h-479a5,5,0,0,1,-5,-5v-12a5,5,0,0,1,5,-5z"></path><g id="node_text24" fill="black"><text id="kity_text_123" text-rendering="inherit" font-size="12" dy=".8em" y="823.7000000476837" x="522.5">深陷感官兴趣的泥潭，比如刷朋友圈，看头条。结果就是知识面狂宽，但却肤浅的可怕。</text></g></g></g></g></svg>